<svg width="22" height="30" fill="none" xmlns="http://www.w3.org/2000/svg"><path d="M20.54 15.556c-.266-.596-.633-1.182-1.169-1.86-1.352-1.7-1.765-5.49-1.77-5.527a.457.457 0 0 0-.316-.386.465.465 0 0 0-.485.132c-1.614 1.804-.935 4.59-.569 5.704.101.305.211.664.29 1.027.595 2.941-.556 4.273-.826 4.541-.261.073-.44.037-.605-.14-.568-.623-.756-2.664-.49-5.323a5.441 5.441 0 0 0-.037-1.482c-.56-3.268-2.616-5.365-3.14-6.1C9.984 4.015 9.838.474 9.833.442a.458.458 0 0 0-.715-.36c-2.402 1.633-2.195 5.564-1.86 7.76.077.509.228 1.027.49 1.682.93 2.34-.184 5.363-.193 5.39-.01.028-.018.05-.023.078-.142.745-.38 1.19-.646 1.19a.313.313 0 0 1-.087-.013c-.326-.068-.495-.413-.5-.713-.018-3.878-3.91-5.182-3.95-5.196a.456.456 0 0 0-.486.136.447.447 0 0 0-.065.5c.046.096.193.514.092 1.991a16.978 16.978 0 0 1-.72 3.9C.245 19.806.391 22.665.4 22.801c.712 7.741 11.846 9.098 18.453 4.736.724-.477 1.315-1.022 1.75-1.622 2.44-3.364 1.005-7.932-.063-10.36ZM3.604 22.95a.454.454 0 0 1-.43.477h-.028a.456.456 0 0 1-.458-.427c-.042-.664-.032-1.36.018-2.114a.463.463 0 0 1 .49-.422.458.458 0 0 1 .427.486c-.05.718-.06 1.373-.019 2Zm.225-4.027a.455.455 0 0 1-.454.4c-.018 0-.037 0-.06-.005a.458.458 0 0 1-.398-.504l.22-1.755a.463.463 0 0 1 .513-.395c.252.032.43.259.399.509l-.22 1.75ZM17.44 6.219a.455.455 0 0 1-.384-.518c.029-.185.194-1.13.644-1.606a.46.46 0 0 1 .648-.02c.184.171.194.459.02.642-.19.201-.352.777-.406 1.122a.458.458 0 0 1-.523.38ZM.73 8.483C.642 8.145.424 7.587.215 7.405a.452.452 0 0 1-.043-.641.46.46 0 0 1 .647-.042c.494.429.752 1.354.799 1.535a.454.454 0 0 1-.33.553.46.46 0 0 1-.558-.327Z" fill="#FF6B09"/></svg>