<svg width="46" height="48" viewBox="0 0 46 48" fill="none" xmlns="http://www.w3.org/2000/svg">
<g clip-path="url(#clip0_1_3489)">
<path d="M45.2266 7.44109C45.2266 7.44005 45.2255 7.43901 45.2255 7.43745C45.2156 7.41397 45.2036 7.39101 45.1895 7.36962C45.188 7.36805 45.1869 7.36649 45.1859 7.36492C45.1713 7.34301 45.1546 7.32109 45.1353 7.30179L37.9264 0.0934448C37.9076 0.0746622 37.8873 0.0590131 37.8653 0.0444044C37.8612 0.041274 37.856 0.0386582 37.8518 0.0355278C37.834 0.0245712 37.8163 0.0146583 37.7975 0.0063105C37.7918 0.00370181 37.7866 0.00109286 37.7813 -0.000472359C37.7344 -0.019255 37.6838 -0.0291673 37.6332 -0.0307325C37.63 -0.0307325 37.6274 -0.03125 37.6254 -0.03125H5.86813C5.63282 -0.03125 5.44238 0.159707 5.44238 0.395012V44.3609C5.44238 44.3891 5.44499 44.4162 5.45073 44.4444C5.45334 44.4564 5.45752 44.4674 5.46117 44.4788C5.46587 44.494 5.46952 44.5091 5.47525 44.5237C5.48099 44.5368 5.4883 44.5493 5.4956 44.5623C5.50186 44.5733 5.50708 44.5858 5.51438 44.5967C5.52899 44.6181 5.54569 44.6385 5.56343 44.6568C5.565 44.6583 5.56552 44.6604 5.5676 44.6614L8.81439 47.9077C8.98082 48.0741 9.25004 48.0741 9.417 47.9077L12.3638 44.9625L15.3095 47.9077C15.3925 47.9912 15.502 48.0324 15.6111 48.0324C15.7196 48.0324 15.8286 47.9912 15.9121 47.9077L18.8573 44.963L21.8041 47.9077C21.9706 48.0741 22.2403 48.0741 22.4067 47.9077L25.3519 44.963L28.2972 47.9077C28.4636 48.0741 28.7333 48.0741 28.8993 47.9077L31.8471 44.9625L34.7923 47.9077C34.8753 47.9912 34.9848 48.0324 35.0933 48.0324C35.2024 48.0324 35.3114 47.9912 35.3949 47.9077L38.3401 44.963L41.2874 47.9077C41.4533 48.0741 41.7236 48.0741 41.8895 47.9077L45.1363 44.6614C45.1426 44.6552 45.1473 44.6479 45.153 44.6411C45.165 44.627 45.178 44.6129 45.1885 44.5973C45.1984 44.5832 45.2052 44.567 45.213 44.5519C45.2182 44.542 45.2239 44.5336 45.2271 44.5237C45.2359 44.5044 45.2401 44.4846 45.2453 44.4647C45.2474 44.458 45.2506 44.4517 45.2521 44.4449C45.2579 44.4157 45.261 44.3875 45.261 44.3578V7.60388C45.2594 7.54806 45.2485 7.49275 45.2266 7.44109ZM38.0506 1.42388L43.8043 7.17709H38.0506V1.42388ZM44.4069 44.1835L41.5869 47.0035L38.6396 44.0583C38.4737 43.8924 38.2039 43.8924 38.0375 44.0583L35.0923 47.0035L32.1471 44.0583C31.9807 43.8924 31.7109 43.8924 31.5445 44.0583L28.5972 47.0035L25.6525 44.0599C25.6525 44.0594 25.652 44.0588 25.652 44.0583C25.569 43.9754 25.46 43.9336 25.3504 43.9336C25.2413 43.9336 25.1323 43.9754 25.0493 44.0583C25.0488 44.0588 25.0488 44.0588 25.0488 44.0588L22.1041 47.0035L19.1573 44.0583C18.9909 43.8924 18.7217 43.8924 18.5547 44.0583L15.6095 47.0035L12.6638 44.0583C12.4973 43.8924 12.2281 43.8924 12.0612 44.0583L9.11439 47.0035L6.29386 44.1835V0.82023H37.1986V7.60284C37.1986 7.83814 37.3895 8.0291 37.6248 8.0291H44.4064L44.4069 44.1835Z" fill="#FF6B09"/>
<path d="M9.47118 4.8513H23.4256C23.6609 4.8513 23.8519 4.66034 23.8519 4.42504C23.8519 4.18974 23.6609 3.99878 23.4256 3.99878H9.47118C9.23535 3.99878 9.04492 4.18974 9.04492 4.42504C9.04492 4.66034 9.23535 4.8513 9.47118 4.8513Z" fill="#FF6B09"/>
<path d="M9.47118 7.48656H31.8491C32.0844 7.48656 32.2753 7.2956 32.2753 7.06029C32.2753 6.82499 32.0844 6.63403 31.8491 6.63403H9.47118C9.23535 6.63403 9.04492 6.82499 9.04492 7.06029C9.04492 7.2956 9.23535 7.48656 9.47118 7.48656Z" fill="#FF6B09"/>
<path d="M9.04492 9.85204V23.65C9.04492 23.8853 9.23535 24.0762 9.47118 24.0762H41.2294C41.4647 24.0762 41.6552 23.8853 41.6552 23.65V9.85204C41.6552 9.61674 41.4647 9.42578 41.2294 9.42578H9.47118C9.23535 9.42578 9.04492 9.61674 9.04492 9.85204ZM18.4628 10.2783H40.8027V13.9456H18.4628V10.2783ZM18.4628 14.7981H40.8027V18.4639H18.4628V14.7981ZM18.4628 19.3159H40.8027V23.2237H18.4628V19.3159ZM9.89744 10.2783H17.6108V13.9456H9.89744V10.2783ZM9.89744 14.7981H17.6108V18.4639H9.89744V14.7981ZM9.89744 19.3159H17.6108V23.2237H9.89744V19.3159Z" fill="#FF6B09"/>
<path d="M41.2294 25.9937H9.47118C9.23535 25.9937 9.04492 26.1846 9.04492 26.4199V40.2173C9.04492 40.4526 9.23535 40.643 9.47118 40.643C9.70648 40.643 9.89692 40.4526 9.89692 40.2173V35.8837H17.6103V40.2173C17.6103 40.4526 17.8013 40.643 18.036 40.643C18.2719 40.643 18.4623 40.4526 18.4623 40.2173V35.8837H40.8021V40.2173C40.8021 40.4526 40.9931 40.643 41.2284 40.643C41.4637 40.643 41.6541 40.4526 41.6541 40.2173V26.4199C41.6552 26.1846 41.4647 25.9937 41.2294 25.9937ZM17.6108 35.0312H9.89744V31.366H17.6108V35.0312ZM17.6108 30.513H9.89744V26.8467H17.6108V30.513ZM40.8027 35.0312H18.4628V31.366H40.8027V35.0312ZM40.8027 30.513H18.4628V26.8467H40.8027V30.513Z" fill="#FF6B09"/>
<path d="M3.42138 -0.0317383C3.18607 -0.0317383 2.99512 0.159219 2.99512 0.394523V44.3604C2.99512 44.5952 3.18607 44.7862 3.42138 44.7862C3.65668 44.7862 3.84763 44.5952 3.84763 44.3604V0.394523C3.84763 0.159219 3.65668 -0.0317383 3.42138 -0.0317383Z" fill="#FF6B09"/>
<path d="M1.07763 -0.0317383C0.842324 -0.0317383 0.651367 0.159219 0.651367 0.394523V44.3604C0.651367 44.5952 0.842324 44.7862 1.07763 44.7862C1.31293 44.7862 1.50336 44.5952 1.50336 44.3604V0.394523C1.50336 0.159219 1.31293 -0.0317383 1.07763 -0.0317383Z" fill="#FF6B09"/>
</g>
<defs>
<clipPath id="clip0_1_3489">
<rect width="45.3913" height="48" fill="white"/>
</clipPath>
</defs>
</svg>
