<svg width="49" height="48" viewBox="0 0 49 48" fill="none" xmlns="http://www.w3.org/2000/svg">
<path d="M2.98926 18.837V23.084C2.98926 23.3121 3.09391 23.5271 3.27332 23.6688C6.17587 25.9532 9.81789 27.212 13.5289 27.212C14.6396 27.212 15.7512 27.0959 16.8381 26.8764C19.1549 27.9004 21.6207 28.4243 24.1731 28.4243C26.7338 28.4243 29.2002 27.9001 31.5088 26.8764C36.145 27.8127 41.0852 26.8071 45.0723 23.6688C45.2517 23.5271 45.3563 23.3121 45.3563 23.084V18.837C45.3563 18.2137 45.0469 17.6457 44.4941 17.2963L38.6933 14.0329C39.9622 12.4227 40.9077 10.1302 41.0721 8.16368C41.5536 4.77893 38.7949 1.19418 34.8239 1.19418C33.1541 1.19418 31.5668 1.88152 30.4021 3.03435C30.3618 3.07429 30.3158 3.10798 30.2766 3.14904C30.2407 3.18653 30.2117 3.23026 30.1768 3.26872C30.1535 3.29423 30.1333 3.32242 30.1105 3.3483C28.9756 1.27875 26.7942 0 24.224 0C23.9743 0 23.7291 0.0171075 23.4862 0.0418018C23.4714 0.0409092 23.4589 0.0333968 23.4438 0.0333968C23.3059 0.0333968 23.0139 0.0696943 22.8577 0.114769C22.8346 0.121463 22.818 0.137752 22.7962 0.14638C20.8769 0.534497 19.2511 1.69751 18.2767 3.38029C17.1049 2.01377 15.3821 1.19485 13.5086 1.19485C7.64643 1.19485 5.04565 8.11266 9.673 14.066L3.81882 17.316C3.29942 17.6449 2.98926 18.2137 2.98926 18.837ZM31.4942 25.2419C31.3684 25.3033 31.244 25.3689 31.1172 25.4266L31.1171 25.4267C31.1162 25.4271 31.1153 25.4277 31.1143 25.428C28.9359 26.429 26.6007 26.9367 24.1731 26.9367C21.7529 26.9367 19.4176 26.429 17.2291 25.4266C16.1642 24.9421 15.1342 24.3262 14.1616 23.5954V19.2902C14.1616 19.1435 14.2327 19.0135 14.3149 18.9589L21.1279 15.1723C21.9755 15.8919 23.0584 16.4196 24.1804 16.4196C25.2613 16.4196 26.4286 15.8842 27.259 15.1547L33.9893 18.9343C34.1136 19.0142 34.1847 19.1435 34.1847 19.2902V23.5947C33.3279 24.2385 32.4254 24.7869 31.4942 25.2419ZM43.7307 18.5725C43.8185 18.6277 43.8687 18.7243 43.8687 18.837V22.718C40.9159 24.9339 37.363 25.9397 33.7634 25.6873C34.3172 25.3417 34.9203 24.9129 35.3876 24.5469C35.567 24.406 35.6723 24.1903 35.6723 23.9615V19.2902C35.6723 18.6379 35.3447 18.0372 34.7571 17.6603L31.1819 15.6511L32.0514 15.1695C33.1058 16.0294 34.0114 16.2852 34.8239 16.2852C35.8176 16.2852 36.8639 15.7977 37.6408 15.147L43.7307 18.5725ZM34.8239 2.68178C36.8946 2.68178 38.7134 4.03491 39.3557 5.89524C38.1064 5.74699 36.8846 5.13031 36.0007 4.1824C35.8408 4.01103 35.6135 3.92237 35.3774 3.94997C35.145 3.97466 34.938 4.10758 34.8181 4.30811C33.9697 5.72959 32.5787 6.67824 30.9966 6.94772C30.9967 6.94623 30.9964 6.94489 30.9964 6.9434C31.0035 6.61977 30.9847 6.29183 30.9476 5.96389C30.9438 5.93027 30.9407 5.89724 30.9365 5.864C30.8886 5.49142 30.7763 5.02588 30.7541 4.9509C31.5988 3.5977 33.1677 2.68178 34.8239 2.68178ZM30.8337 8.46537C32.713 8.25949 34.4126 7.31516 35.58 5.82257C36.7307 6.76623 38.1904 7.33806 39.6329 7.40716C39.6217 10.095 37.4262 14.7976 34.8239 14.7976C32.8181 14.7976 31.1056 11.9291 30.4657 9.94033C30.6283 9.42882 30.7467 8.93679 30.8337 8.46537ZM30.9847 14.0593L29.6559 14.7951L28.314 14.0414C28.8115 13.4216 29.2677 12.702 29.6584 11.9213C30.0339 12.7109 30.484 13.4364 30.9847 14.0593ZM28.9795 9.69704C28.2622 11.8369 26.4223 14.932 24.1804 14.932C21.5671 14.932 19.3415 10.6358 18.9175 7.88833C19.0306 7.86029 22.5619 8.07785 24.9918 4.88701C26.2253 5.91881 27.8893 6.6017 29.5078 6.66946C29.527 7.6393 29.2917 8.77881 28.9795 9.69704ZM24.224 1.48761C28.3935 1.48761 29.1872 5.07631 29.2525 5.15076C27.7406 4.99724 26.3611 4.25656 25.408 3.2374C25.2482 3.06603 25.0157 2.98027 24.784 3.00571C24.5508 3.03115 24.3438 3.16481 24.224 3.36675C23.3981 4.76406 22.1028 5.7496 20.603 6.16843C20.0241 6.33021 19.3987 6.404 18.8535 6.39871C19.0576 3.66598 21.2478 1.48761 24.224 1.48761ZM18.6912 11.907C19.0771 12.6791 19.5355 13.4166 20.0603 14.0645L18.7472 14.7944L17.3869 14.0298C17.9028 13.3723 18.3407 12.6366 18.6912 11.907ZM13.5086 2.68245C15.1954 2.68245 16.7411 3.53849 17.6024 4.95313C17.5592 5.10308 17.4428 5.69999 17.4274 5.77466C16.3923 5.52698 15.4414 4.9756 14.6962 4.18099C14.5357 4.01029 14.309 3.92527 14.0722 3.94997C13.8398 3.9754 13.6328 4.10907 13.5137 4.31026C12.5188 5.98925 10.6926 7.03206 8.74795 7.03258C8.98476 4.59231 11.0249 2.68245 13.5086 2.68245ZM8.81331 8.5164C10.9508 8.49557 12.9688 7.48809 14.2771 5.82257C15.1708 6.55834 16.2323 7.04277 17.3603 7.26406C17.404 8.12635 17.6287 9.17414 17.8857 9.94688C17.475 11.2064 16.687 12.7079 15.7096 13.705C15.7034 13.7112 15.6952 13.714 15.6892 13.7204C15.0775 14.3647 14.2074 14.7983 13.5231 14.7983C11.1321 14.7983 9.26191 11.0362 8.81331 8.5164ZM4.47686 18.837C4.47686 18.7243 4.527 18.6285 4.57787 18.5943L10.7517 15.1682C11.122 15.4766 11.2072 15.5118 11.2818 15.5663L11.2815 15.5668C12.0081 16.0497 12.674 16.2903 13.5827 16.2903C14.5503 16.2903 15.4312 15.8803 16.2063 15.249C16.25 15.2148 16.297 15.1818 16.3385 15.147L17.2196 15.6424L13.55 17.6835C13.0016 18.0372 12.6739 18.6379 12.6739 19.2902V23.9615C12.6739 24.1896 12.7786 24.4053 12.9587 24.5462C13.4338 24.9194 14.0498 25.3547 14.5829 25.6881C10.9314 25.9372 7.37874 24.8956 4.47686 22.718V18.837Z" fill="#FF6B09"/>
<path d="M46.8879 31.1716C45.9727 30.5963 44.8461 30.5367 43.8771 31.0067L34.6979 35.441C34.6659 33.723 33.2638 32.3338 31.5375 32.3338L26.2743 32.3352C23.679 30.0791 20.3624 28.6975 17.3465 28.6249C14.3724 28.5544 11.7027 28.5346 10.4576 28.5291V27.0261H0V44.3014H10.4576V42.2327C13.3254 43.878 20.8661 48.0001 24.4446 48.0001C24.5259 48.0001 24.6051 47.998 24.6813 47.9936C30.9746 47.6406 45.8172 37.1961 46.7964 36.5024C47.7538 35.9467 48.3472 34.9182 48.3472 33.809C48.3472 32.7304 47.8017 31.7447 46.8879 31.1716ZM8.96997 42.8138H1.48761V28.5137H8.96997V42.8138ZM46.0308 35.2269C46.0083 35.2392 45.9858 35.253 45.9647 35.2683C45.8114 35.3772 30.5439 46.1747 24.5985 46.5089C24.5397 46.5118 24.4801 46.5132 24.4176 46.5132C21.2789 46.5132 13.6263 42.3844 10.4576 40.5118V30.0167C11.698 30.0223 14.3524 30.0422 17.3108 30.1125C20.0659 30.1786 23.1247 31.4941 25.4941 33.631L25.7063 33.8228L31.5375 33.8214C32.4629 33.8214 33.2162 34.5739 33.2162 35.4992C33.2162 36.4247 32.4637 37.1779 31.5383 37.1779H20.8251V38.6655H31.5383C32.565 38.6655 33.4699 38.1664 34.0486 37.4063L44.5244 32.3461C45.0386 32.0955 45.6124 32.1274 46.0976 32.4318C46.5822 32.7354 46.8596 33.2373 46.8596 33.809C46.8596 34.3959 46.5421 34.9385 46.0308 35.2269Z" fill="#FF6B09"/>
<path d="M24.9173 18.2375H23.4297V19.6169H24.9173V18.2375Z" fill="#FF6B09"/>
<path d="M24.9173 20.9885H23.4297V22.3679H24.9173V20.9885Z" fill="#FF6B09"/>
<path d="M24.9173 23.7393H23.4297V25.1186H24.9173V23.7393Z" fill="#FF6B09"/>
</svg>
