<svg width="48" height="47" viewBox="0 0 48 47" fill="none" xmlns="http://www.w3.org/2000/svg">
<g clip-path="url(#clip0_1_3516)">
<path d="M44.3201 -0.187988H21.1931C19.6876 -0.187988 18.4629 1.0367 18.4629 2.54224V12.1155L1.28158 19.3269C1.08706 19.4085 0.954827 19.5921 0.939892 19.8026C0.924956 20.0132 1.02914 20.2142 1.21018 20.3228L3.40129 21.6342V35.6091C2.28083 35.8646 1.44004 36.8674 1.44004 38.0673V39.4143C1.44004 39.7233 1.69066 39.9739 1.99956 39.9739H5.92315C6.23205 39.9739 6.48267 39.7233 6.48267 39.4143V38.0673C6.48267 36.869 5.64175 35.8675 4.52033 35.6104V22.304L6.25282 23.3409C6.19955 23.7404 6.24607 22.6446 6.22805 29.8471C6.22805 32.2147 12.2925 33.483 18.4629 33.5557V44.4617C18.4629 45.0251 18.6354 45.549 18.9303 45.9838C19.421 46.7097 20.2515 47.1879 21.1917 47.1879H44.3187C45.8227 47.1879 47.0463 45.964 47.0463 44.4603C47.0463 44.535 47.0433 42.1501 47.0463 2.5426C47.0463 1.0575 45.8184 -0.187988 44.3201 -0.187988ZM5.36363 38.0673V38.8548H2.55909V38.0673C2.55909 37.2921 3.18673 36.6612 3.9579 36.6612C4.73307 36.6612 5.36363 37.2921 5.36363 38.0673ZM44.3201 46.066H21.1931C20.6382 46.066 20.148 45.7851 19.8581 45.3587C19.6845 45.102 19.583 44.7927 19.583 44.4603V40.6798H45.9244V44.4617C45.9244 45.3381 45.1941 46.066 44.3201 46.066ZM45.9244 39.5608H19.5819V33.559C22.5947 33.5245 31.8241 32.861 31.8241 29.8471C31.8208 25.3225 31.8321 23.4877 31.8099 23.3324L36.8343 20.3228C37.0153 20.2142 37.1195 20.0132 37.1046 19.8026C37.0896 19.5921 36.9574 19.4085 36.7629 19.3269L19.5819 12.1153V7.44208H45.9244V39.5608ZM19.0224 26.1322C15.9188 26.1322 9.94312 26.533 7.3471 28.2282C7.36357 23.0432 7.1672 23.3809 7.80572 22.9412C9.41835 21.7537 14.0308 20.9246 19.0224 20.9246C21.1996 20.9246 30.705 21.5231 30.705 23.5357V28.229C28.0847 26.518 22.1393 26.1322 19.0224 26.1322ZM19.583 2.5426C19.583 1.6556 20.3047 0.933974 21.1917 0.933974H44.3187C45.2065 0.933974 45.9244 1.66572 45.9244 2.54224V6.32303H19.583V2.5426ZM19.0224 13.0941L35.3109 19.9308L31.2749 22.3461C29.1292 20.2182 22.0312 19.8055 19.0224 19.8055C16.0097 19.8055 8.91124 20.2194 6.77009 22.3467L2.73284 19.9308L19.0224 13.0941ZM7.3471 29.8471C7.3471 28.9415 11.357 27.2513 19.0224 27.2513C26.6926 27.2513 30.705 28.9415 30.705 29.8471C30.705 30.7534 26.6926 32.4436 19.0224 32.4436C11.357 32.4436 7.3471 30.7534 7.3471 29.8471Z" fill="#FF6B09"/>
<path d="M32.7548 41.5234C31.7345 41.5234 30.9043 42.3533 30.9043 43.3739C30.9043 44.3946 31.7345 45.2252 32.7548 45.2252C33.7755 45.2252 34.6057 44.3946 34.6057 43.3739C34.6057 42.3533 33.7755 41.5234 32.7548 41.5234ZM32.7548 44.1061C32.3516 44.1061 32.0233 43.7776 32.0233 43.3739C32.0233 42.9703 32.3516 42.6425 32.7548 42.6425C33.1584 42.6425 33.4866 42.9703 33.4866 43.3739C33.4866 43.7776 33.1584 44.1061 32.7548 44.1061Z" fill="#FF6B09"/>
<path d="M34.8896 3.06909H30.6211V4.18814H34.8896V3.06909Z" fill="#FF6B09"/>
</g>
<defs>
<clipPath id="clip0_1_3516">
<rect width="48" height="47" fill="white"/>
</clipPath>
</defs>
</svg>
