<svg width="40" height="48" viewBox="0 0 40 48" fill="none" xmlns="http://www.w3.org/2000/svg">
<g clip-path="url(#clip0_1_3527)">
<path d="M-0.15347 47.6381C5.00796 47.6381 34.8682 47.6381 40.0236 47.6381C40.2225 43.0563 39.8943 35.4544 37.0773 31.8363L36.9755 31.7063L30.8197 28.6156C30.9534 28.1647 31.0192 27.7517 31.0456 27.4481C31.076 27.0838 31.0258 26.7414 30.8957 26.4314C29.8801 24.0013 27.7312 22.7228 26.5491 22.1777C26.9094 21.452 27.1416 20.6729 27.2538 19.8768C27.9229 19.6883 28.4611 19.158 28.6375 18.4506L29.3561 15.5316C29.4834 15.0166 29.4035 14.4826 29.1298 14.0284C29.012 13.8326 28.8597 13.6677 28.6889 13.5268C30.7147 8.92517 27.3218 4.5863 27.1369 4.35791C23.4622 0.384904 18.8201 1.12781 18.5747 1.17183C11.8756 2.57462 9.2903 7.70877 10.7499 13.7302C10.3174 14.2092 10.136 14.8765 10.2962 15.5309L11.0182 18.4531C11.1933 19.1553 11.7273 19.6837 12.3916 19.8744C12.5966 21.3323 13.2137 22.6509 14.12 23.7136V26.0277C4.50666 30.9507 10.598 27.8099 2.89388 31.7074C2.87865 31.7801 -0.721045 35.6058 -0.186001 46.9453L-0.15347 47.6381ZM38.6275 46.1836H32.0152V43.4059L36.3885 33.3941C38.5794 37.0305 38.6608 43.9737 38.6275 46.1836ZM29.6029 27.3245C29.3477 30.2558 27.7402 29.3698 26.7479 31.6282C25.9674 30.7699 25.7327 29.7408 25.9424 28.6392C26.3214 26.6164 25.0868 26.0157 25.3919 23.8903L25.4382 23.8416V23.8348C25.4644 23.8055 25.7079 23.5156 25.7783 23.424C28.3945 24.5644 29.6539 26.6854 29.6029 27.3245ZM15.5684 25.0206C16.7829 25.8629 18.2489 26.3608 19.8258 26.3608C21.3108 26.3608 22.7213 25.9287 23.9305 25.133C24.0981 26.8038 24.7512 27.1383 24.5195 28.3679C24.476 28.5961 24.4525 28.821 24.4386 29.0422L19.9354 34.1175L14.1788 27.6276L15.5684 26.902V25.0206H15.5684ZM13.758 18.8093V15.9953C13.758 14.9591 13.758 10.8481 13.758 11.0511C14.4588 9.75493 15.4142 8.81495 16.6016 8.25138C19.7818 10.0507 23.4423 12.736 25.8971 15.4386C25.8948 18.8803 25.9068 18.8896 25.884 19.1724L25.8824 19.1904C25.6909 22.3156 23.1211 24.9062 19.8258 24.9062C16.6221 24.9062 13.9623 22.3909 13.77 19.1594C13.7601 19.0436 13.758 18.9275 13.758 18.8093ZM12.8612 28.3295L19.9354 36.3043L24.6848 30.9515C24.7933 31.2641 24.9456 31.5593 25.1197 31.8446L19.9354 38.3277L12.2046 28.6591L12.8612 28.3295ZM27.3455 17.6388V15.392C27.4091 15.319 27.9491 14.6999 27.8854 14.7729C27.9153 15.9105 28.0381 14.5678 27.3455 17.6388ZM18.8428 2.60117C19.1301 2.61906 22.9905 2.01398 26.0414 5.30785C26.1615 5.4586 28.6451 8.65848 27.6473 12.159C27.3058 10.6014 26.7106 8.60526 25.7698 7.65266L24.7416 8.67681C25.6704 9.61759 26.2805 12.4825 26.5129 13.9677C22.2523 9.5094 16.7562 6.68763 16.6808 6.63988C16.4052 6.81131 14.0794 7.25349 12.3902 10.5365L12.3096 10.6935V13.1047C12.2371 13.1055 12.0242 13.1078 12.0967 13.107C11.0234 7.92547 13.0787 3.80932 18.8428 2.60117ZM11.9441 14.6033L12.3096 16.0841V17.6406L11.7021 15.1818C11.613 14.8153 11.8845 14.6763 11.9441 14.6033ZM10.8791 29.3245L19.9354 40.6509L26.0627 32.9874C26.7292 33.5839 27.0497 33.6685 28.4629 34.3952L27.9862 32.7784C27.8653 32.3679 28.3441 31.7095 28.6333 31.4069C29.2789 31.0567 29.817 30.5573 30.2196 29.9407L35.2188 32.451L30.5668 43.1012V46.1836H9.30327V43.1008L4.64915 32.452L10.8791 29.3245ZM3.48085 33.3973L7.85492 43.4062V46.1836H1.24255C1.20932 43.9744 1.29135 37.0348 3.48085 33.3973Z" fill="#FF6B09"/>
</g>
<defs>
<clipPath id="clip0_1_3527">
<rect width="39.8298" height="48" fill="white"/>
</clipPath>
</defs>
</svg>
