<svg width="58" height="48" viewBox="0 0 58 48" fill="none" xmlns="http://www.w3.org/2000/svg">
<path d="M4.57115 44.1788H22.916C23.8457 46.1068 25.791 47.3524 27.9863 47.3524H29.1448C31.3423 47.3524 33.2865 46.1074 34.2162 44.1788H52.5712C54.4618 44.1788 55.9997 42.6409 55.9997 40.7503V7.89311C55.9997 6.00249 54.4618 4.46454 52.5712 4.46454H50.7196V2.9333C50.7196 1.67269 49.6939 0.647583 48.4339 0.647583H8.69726C7.43722 0.647583 6.41155 1.67269 6.41155 2.9333V4.46454H4.57115C2.68052 4.46454 1.14258 6.00249 1.14258 7.89311V40.7503C1.14258 42.6409 2.68052 44.1788 4.57115 44.1788ZM48.4316 37.1275H29.714V10.5698C34.0404 11.1357 37.3948 14.8373 37.3948 19.3156V20.3463L37.1236 20.2865C36.829 20.2235 36.5198 20.2765 36.2631 20.4394C36.0075 20.603 35.8267 20.8608 35.762 21.1571L33.9428 29.4361C33.8078 30.0516 34.1973 30.6604 34.8133 30.796L38.7453 31.6627C38.9484 31.7056 39.1549 31.7279 39.3613 31.7279C40.7441 31.7279 41.9216 30.7821 42.2229 29.4255L43.2754 24.6375C43.6225 23.0656 42.6258 21.5019 41.0488 21.1515L39.6805 20.85V19.3156C39.6805 13.5745 35.3048 8.83692 29.714 8.26019V2.9333H48.4339L48.4316 37.1275ZM37.7486 22.7648L40.5555 23.3831C40.906 23.4612 41.1202 23.7949 41.0432 24.1454L39.9908 28.9322C39.9149 29.2782 39.5321 29.493 39.2296 29.4288L36.4194 28.8094L37.7486 22.7648ZM8.69726 2.9333H27.4283V8.2585C21.832 8.82993 17.4506 13.5706 17.4506 19.3156V20.8493L16.0801 21.1521C15.3167 21.3217 14.6649 21.7765 14.2464 22.4327C13.8256 23.0907 13.6872 23.8742 13.8569 24.6353L14.9071 29.4177C15.1917 30.7564 16.3959 31.7279 17.7709 31.7279C17.9774 31.7279 18.1839 31.7056 18.3948 31.661L22.31 30.796C22.925 30.6599 23.3145 30.0516 23.1794 29.4361L21.3602 21.1571C21.2955 20.8608 21.1147 20.6024 20.8591 20.4394C20.6024 20.2765 20.2921 20.2229 19.9975 20.2865L19.7363 20.3442V19.3156C19.7363 14.8335 23.0965 11.129 27.4283 10.5681V37.1275H8.69726V5.6074V2.9333ZM19.3736 22.7659L20.704 28.81L17.9093 29.4272C17.5656 29.5047 17.2151 29.2776 17.1415 28.9355L16.089 24.142C16.0511 23.9757 16.0812 23.8055 16.1716 23.6638C16.2631 23.5203 16.4071 23.421 16.5734 23.3836L19.3736 22.7659ZM3.42829 7.89311C3.42829 7.26309 3.94057 6.75026 4.57115 6.75026H6.41155V37.1275C6.41155 38.3881 7.43722 39.4132 8.69726 39.4132H48.4339C49.6939 39.4132 50.7196 38.3881 50.7196 37.1275V6.75026H52.5712C53.2017 6.75026 53.714 7.26309 53.714 7.89311V40.7503C53.714 41.3803 53.2017 41.8931 52.5712 41.8931H33.4395C32.9372 41.8931 32.4941 42.2207 32.3468 42.7006C31.9127 44.1158 30.6258 45.0667 29.1448 45.0667H27.9863C26.5109 45.0667 25.2252 44.1197 24.7799 42.6872C24.6281 42.214 24.1884 41.8931 23.6917 41.8931H4.57115C3.94057 41.8931 3.42829 41.3803 3.42829 40.7503V7.89311Z" fill="#FF6B09"/>
</svg>
