<svg width="69" height="48" viewBox="0 0 69 48" fill="none" xmlns="http://www.w3.org/2000/svg">
<path d="M30.3999 6.91187H9.94043V8.44378H30.3999V6.91187Z" fill="white"/>
<path d="M30.3995 12.6238H13.0039V14.1557H30.3995V12.6238Z" fill="white"/>
<path d="M30.3999 18.3359H9.94043V19.8679H30.3999V18.3359Z" fill="white"/>
<path d="M30.3995 24.0476H13.0039V25.5795H30.3995V24.0476Z" fill="white"/>
<path d="M30.3999 29.7595H9.94043V31.2914H30.3999V29.7595Z" fill="white"/>
<path d="M30.3995 35.4717H13.0039V37.0036H30.3995V35.4717Z" fill="white"/>
<path d="M58.4848 6.91187H38.0254V8.44378H58.4848V6.91187Z" fill="white"/>
<path d="M55.421 12.6238H38.0254V14.1557H55.421V12.6238Z" fill="white"/>
<path d="M58.4848 18.3359H38.0254V19.8679H58.4848V18.3359Z" fill="white"/>
<path d="M55.421 24.0476H38.0254V25.5795H55.421V24.0476Z" fill="white"/>
<path d="M58.4848 29.7595H38.0254V31.2914H58.4848V29.7595Z" fill="white"/>
<path d="M55.421 35.4717H38.0254V37.0036H55.421V35.4717Z" fill="white"/>
<path d="M65.8722 5.16805H63.0637V0.949795C63.0637 0.526923 62.7206 0.183838 62.2978 0.183838H39.4008C37.1664 0.183838 35.2297 1.3918 34.2133 3.20004C33.1969 1.39162 31.259 0.183838 29.0245 0.183838H6.12754C5.70466 0.183838 5.36158 0.526923 5.36158 0.949795V5.16805H2.55307C2.13019 5.16805 1.78711 5.51113 1.78711 5.934V47.0504C1.78711 47.4732 2.13019 47.8163 2.55307 47.8163C10.2433 47.8163 58.1545 47.8163 65.8722 47.8163C66.2951 47.8163 66.6382 47.4732 66.6382 47.0504V5.934C66.6382 5.51113 66.2951 5.16805 65.8722 5.16805ZM39.4008 1.71575H61.5318C61.5318 8.57493 61.5318 26.6436 61.5318 42.7408H37.7667C36.7132 42.7408 35.6599 43.1851 34.9786 43.7611V6.12799C34.9786 3.68272 36.9363 1.71575 39.4008 1.71575ZM6.89349 1.71575H29.0245C31.4196 1.71575 33.3579 3.57978 33.4372 5.95944C33.4382 5.99235 33.4412 6.09557 33.4467 6.12799V6.13397V6.13547V43.7581C32.7672 43.1844 31.7252 42.7408 30.6686 42.7408H6.89349C6.89349 26.649 6.89349 8.57274 6.89349 1.71575ZM3.31902 6.69996H5.36158V43.5068C5.36158 43.9297 5.70466 44.2728 6.12754 44.2728H30.6686C31.8362 44.2728 32.9646 45.0387 33.3258 46.2844H3.31902V6.69996ZM65.1063 46.2844H35.1C35.4636 45.0327 36.5807 44.2728 37.7667 44.2728H62.2978C62.7206 44.2728 63.0637 43.9297 63.0637 43.5068V6.69996H65.1063V46.2844Z" fill="white"/>
</svg>
